<svg id="Layer_1" data-name="Layer 1" xmlns="http://www.w3.org/2000/svg" viewBox="0 0 256 205.98"><defs><style>.cls-1{fill:#6b007f;}</style></defs><title>coffeescript</title><path class="cls-1" d="M101.61,9.07c.24,1.4-.46,2.56-2.79,3.73-3-1.63-9.55-2.56-14.9-2.1C78.1,11.17,73.21,13,73.9,17c.94,4,6.52,6.29,16.54,5.35C114.89,20.25,114.65,3.72,150.51.46c28-2.57,43.55,6.05,45.65,16.53,1.63,8.15-5.13,16.07-25.39,17.7-17.93,1.63-28.41-3.26-29.34-8.15-.46-2.57.93-6.29,9.55-7.22.93,4,5.82,8.15,17.46,7,8.39-.7,15.37-3.72,14.44-8.38C182,13,173.1,10.24,159.13,11.4,130.72,14,123.74,29.56,99.52,31.66c-17.23,1.63-31.2-4.66-33.07-14-.7-3.5-.7-11.65,17.47-13.28,9.31-.69,16.76.94,17.69,4.66ZM10.8,106.41A48.22,48.22,0,0,0,.09,139.47c.7,11.41,6.28,20.73,15.13,27.95,9.32,7.21,19.33,9.31,30.74,7.21,4.42-.69,9.31-3,13.74-4.42-9.32,0-17.23-3-25.15-9.31-8.62-6.29-14.44-15.14-15.83-25.85a34.67,34.67,0,0,1,5.58-27.48c6.29-7.92,14.44-12.34,25.15-13.74,10.71-.7,20,2.1,29.34,8.62-2.09-3-5.12-5.12-7.91-7.92-9.32-6.29-19.33-9.31-31.67-6.29C28,90.57,18.72,96.39,10.8,106.41ZM135.61,52.62c-30,0-56.82-3-76.14-7.22C38.74,40.27,27.8,34.69,27.8,27.47c0-3,1.39-5.59,5.59-8.62-13,5.12-20,9.32-20,15.84.7,7.21,12.34,14.43,36.09,20,22.36,5.59,51,8.62,85.46,8.62,35.16,0,63.11-3,85.46-8.62,23.75-5.59,35.16-13,35.16-20,0-5.13-5.12-10-14.43-13.74a7.87,7.87,0,0,1,3.72,6.28c0,7.22-10.71,13-32.36,17.93-20,4.43-45.65,7.46-76.85,7.46Zm85.69,20c-22.35,5.12-51,8.62-85.46,8.62-35.16,0-63.8-3.73-86.15-8.62C29.66,67.52,19,61.93,15.22,56.11A212.11,212.11,0,0,0,39,126c8.62,13,17.24,24.45,25.85,36.79a90.3,90.3,0,0,1,7.92,21.65c5.59,7.92,13.74,13,23.75,15.84a97.07,97.07,0,0,0,38.19,5.59h1.4a108.21,108.21,0,0,0,39.35-5.59c9.31-3,17.23-7.92,23-15.84h.7a88,88,0,0,1,7.22-21.65C215,150.42,223.63,139,232.25,126c11.41-20.73,19.33-44.48,23.75-69.86-4.66,6.52-15.37,12.11-34.7,16.53Z" transform="translate(0 0)"/></svg>