<?xml version="1.0" encoding="utf-8"?>
<!-- Generator: Adobe Illustrator 22.1.0, SVG Export Plug-In . SVG Version: 6.00 Build 0)  -->
<svg version="1.1" id="Layer_1" xmlns="http://www.w3.org/2000/svg" xmlns:xlink="http://www.w3.org/1999/xlink" x="0px" y="0px"
	 viewBox="0 0 1280 1024" style="enable-background:new 0 0 1280 1024;" xml:space="preserve">
<style type="text/css">
	.st0{fill:#FFFFFF;}
	.st1{fill:url(#SVGID_1_);}
</style>
<g>
	<g transform="translate(5 5)">
		<g>
			<circle id="b_10_" cx="255.5" cy="234.5" r="166.5"/>
		</g>
		<g>
			<circle id="b_1_" class="st0" cx="255.5" cy="234.5" r="166.5"/>
		</g>
	</g>
	
		<linearGradient id="SVGID_1_" gradientUnits="userSpaceOnUse" x1="-1.0934" y1="1026.9722" x2="3.0691" y2="1022.8097" gradientTransform="matrix(57.6 0 0 -34.56 203.6 35658.4062)">
		<stop  offset="0" style="stop-color:#2383AE"/>
		<stop  offset="1" style="stop-color:#6DD7B9"/>
	</linearGradient>
	<path class="st1" d="M200.6,214.2c8-32,28-48,59.9-48c48,0,53.9,36,77.9,42c16,4,30-2,42-18c-8,32-28,48-59.9,48
		c-48,0-53.9-36-77.9-42C226.5,192.2,212.5,198.2,200.6,214.2z M140.6,286.1c8-32,28-48,59.9-48c48,0,53.9,36,77.9,42
		c16,4,30-2,42-18c-8,32-28,48-59.9,48c-48,0-53.9-36-77.9-42C166.6,264.1,152.6,270.1,140.6,286.1z"/>
</g>
</svg>
