<svg id="Layer_1" data-name="Layer 1" xmlns="http://www.w3.org/2000/svg" xmlns:xlink="http://www.w3.org/1999/xlink" viewBox="0 0 256 368.73"><defs><style>.cls-1{fill:url(#linear-gradient);}</style><linearGradient id="linear-gradient" x1="54.2" y1="15.9" x2="219.2" y2="345.9" gradientUnits="userSpaceOnUse"><stop offset="0" stop-color="#f0ff15"/><stop offset="1" stop-color="#ff0074"/></linearGradient></defs><title>angellist</title><path class="cls-1" d="M214.9,157.36c15.27,2.35,25.83,9.39,31.71,18.79S256,202,256,223.12c0,42.27-12.92,77.5-38.75,104.51s-58.72,41.1-98.64,41.1a125.72,125.72,0,0,1-45.8-8.22c-15.27-5.87-27-14.09-37.58-23.48a123.09,123.09,0,0,1-27-35.23C3.52,288.88,0,276,0,263.05,0,249,3.52,237.21,9.39,229s16.44-12.92,29.36-16.44c-2.35-5.87-4.69-10.57-5.87-15.27-1.17-3.52-2.35-7-2.35-9.39,0-7,3.53-15.27,11.75-23.49s15.26-11.74,22.31-11.74c3.52,0,5.87,0,9.39,1.17a36.22,36.22,0,0,1,11.74,5.88c-10.56-35.23-21.13-64.59-27-84.55S50.5,42.28,50.5,34.06c0-10.57,2.34-18.79,8.22-24.67C63.41,3.52,71.63,0,81,0c15.26,0,35.23,35.23,59.89,106.86,4.69,11.75,7,21.14,9.39,28.19,2.35-4.7,4.7-12.92,8.22-22.32C183.19,42.28,204.33,7.05,220.77,7.05c8.22,0,15.27,2.34,21.14,8.22a37.79,37.79,0,0,1,8.22,23.48c0,7-2.35,21.14-8.22,41.1-7,20-15.27,45.8-27,77.51ZM34.06,260.7a74.22,74.22,0,0,1,9.39,12.91C54,288.88,64.59,297.1,74,297.1a10.66,10.66,0,0,0,8.22-3.52c2.35-2.35,3.52-4.7,3.52-5.87,0-2.35-1.17-7-4.69-12.92a160.29,160.29,0,0,0-14.09-20C59.89,246.61,54,239.56,50.5,236c-4.7-3.53-8.22-5.87-10.57-5.87-5.87,0-11.75,3.52-16.44,9.39s-7,14.09-7,22.31c0,7.05,1.17,14.09,4.7,23.49,3.52,8.22,8.22,17.61,15.26,25.83C47,322.94,58.72,333.5,74,340.55s30.53,10.57,49.32,10.57c32.88,0,59.89-11.74,82.2-36.4s32.89-55.2,32.89-92.78a153.44,153.44,0,0,0-2.35-27c-1.18-7.05-4.7-11.75-8.22-14.1-7-5.87-20-10.56-39.93-15.26a273.18,273.18,0,0,0-62.24-7.05c-5.87,0-10.57,1.18-12.92,3.53s-3.52,5.87-3.52,10.56c0,11.75,5.87,20,18.79,24.66s34.06,8.22,62.24,8.22h10.57a9,9,0,0,1,5.87,2.35,17,17,0,0,1,2.35,8.22c-2.35,2.35-8.22,5.87-17.62,9.4a76.13,76.13,0,0,0-20,10.57,77.29,77.29,0,0,0-24.66,27c-5.87,10.56-9.4,20-9.4,29.35,0,5.88,1.18,11.75,3.53,20s3.52,12.91,3.52,14.09v4.7c-7.05,0-12.92-4.7-17.61-12.92S121,299.45,121,285.36V283c-1.17,1.17-2.34,2.35-3.52,2.35s-2.35,1.17-4.7,1.17H108c-1.18,0-2.35-1.17-4.7-1.17,0,2.35,1.17,3.52,1.17,5.87v4.7a23.17,23.17,0,0,1-7,16.44,23.93,23.93,0,0,1-17.62,7c-10.57,0-21.13-4.69-32.88-15.26-10.57-10.57-16.44-20-16.44-30.54,0-2.34,0-3.52,1.18-4.69,0-5.87,1.17-7.05,2.35-8.22Zm76.33,5.87a12,12,0,0,0,11.74-11.74c0-3.53-2.35-10.57-7-22.32a187.11,187.11,0,0,0-17.61-34c-4.7-8.22-10.57-15.27-15.27-18.79a18.59,18.59,0,0,0-14.09-5.87c-3.52,0-7,2.35-11.74,7s-5.87,8.22-5.87,12.92c0,3.52,2.34,10.57,5.87,18.79a229.83,229.83,0,0,0,16.44,25.84c7,9.39,14.09,17.61,21.13,23.48,7,2.35,11.75,4.7,16.45,4.7Zm24.66-122.13L106.86,65.76c-7-20-11.74-34.05-16.44-39.93-3.52-5.87-7-9.39-11.74-9.39A10.66,10.66,0,0,0,70.46,20a15.11,15.11,0,0,0-4.7,11.75c0,8.22,3.52,21.13,9.4,39.92s15.26,44.63,27,75.16c1.17-2.35,2.34-3.52,4.69-3.52,2.35-1.18,4.7-1.18,7-1.18h5.87c3.52,1.18,8.22,1.18,15.27,2.35Zm28.18,76.33c-7,0-14.09-1.17-21.14-2.35s-12.92-2.35-18.79-4.7c2.35,5.88,4.7,10.57,7,16.45a86.62,86.62,0,0,1,4.7,16.44c3.52-4.7,8.22-9.4,12.91-14.1,5.87-4.69,10.57-8.22,15.27-11.74Zm34.05-68.11c11.75-30.53,20-56.37,27-76.33,5.88-20,9.4-31.71,9.4-36.4a19.93,19.93,0,0,0-3.52-11.75,10.67,10.67,0,0,0-8.23-3.52c-4.69,0-9.39,3.52-14.09,11.74A203.86,203.86,0,0,0,191.41,74l-25.83,72.81,31.7,5.87Z"/></svg>