<svg id="Layer_1" data-name="Layer 1" xmlns="http://www.w3.org/2000/svg" xmlns:xlink="http://www.w3.org/1999/xlink" viewBox="0 0 448.1 448"><defs><style>.cls-1{fill:url(#linear-gradient);}</style><linearGradient id="linear-gradient" x1="36.55" y1="33.63" x2="332.72" y2="546.61" gradientUnits="userSpaceOnUse"><stop offset="0.04" stop-color="#3c7bff"/><stop offset="0.42" stop-color="#003394"/><stop offset="1" stop-color="#1e0015"/></linearGradient></defs><title>linkedin</title><path class="cls-1" d="M100.3,480H7.4V180.9h92.9ZM53.8,140.1C24.1,140.1,0,115.5,0,85.8a53.8,53.8,0,0,1,107.6,0C107.6,115.5,83.5,140.1,53.8,140.1ZM448,480H355.3V334.4c0-34.7-.7-79.2-48.3-79.2-48.3,0-55.7,37.7-55.7,76.7V480H158.5V180.9h89.1v40.8h1.3c12.4-23.5,42.7-48.3,87.9-48.3,94,0,111.3,61.9,111.3,142.3V480Z" transform="translate(0 -32)"/></svg>