<svg id="Layer_1" data-name="Layer 1" xmlns="http://www.w3.org/2000/svg" viewBox="0 0 256.88 548.01"><defs><style>.cls-1{fill:#a6a385;}.cls-2{fill:#499d4a;}.cls-3{fill:#58aa50;}</style></defs><title>mongodb</title><g id="mongodb-leaf"><path id="mongodb-leaf-stem" class="cls-1" d="M226.55,561.1l-13.24-8.59s20.31-73.41-4.87-85.36c-12.52-24.93,221.07-868.6,67.15,13.85,0,0-24.66,5.45-33.25,23.21-8.86,17.31-15.79,56.89-15.79,56.89Z" transform="translate(-154.88 -13.09)"/><path id="mongodb-leaf-right" class="cls-2" d="M244.7,499.45s161.59-44.06,166.94-240.86C414.69,125.25,357.58,67,354.15,49.19c-5.29-13.34-8.1-35.08-8.1-35.08L263.26,366.33c-.09.36-43.42,112.73-18.79,132.81" transform="translate(-154.88 -13.09)"/><path id="mongodb-leaf-left" class="cls-3" d="M221.41,488.81s-98.68-111.18-55.68-252.52C208.37,94.86,310.13,45.66,329.57,37,343,28.37,344.44,24.22,348,13.09c3.43,17.76-53.7,239.33-59.2,265.74-22.11,101.51-54.45,192.94-67.37,210Z" transform="translate(-154.88 -13.09)"/></g></svg>