<svg id="Layer_1" data-name="Layer 1" xmlns="http://www.w3.org/2000/svg" viewBox="0 0 256 203.6"><defs><style>.cls-1{fill:#fff;}</style></defs><title>squarespace</title><path class="cls-1" d="M162.93,40.67a12.35,12.35,0,0,0-17.46,0l-78.6,78.6A24.7,24.7,0,0,1,31.94,84.33L109,7.25a24.69,24.69,0,0,0-34.93,0L14.47,66.87a49.4,49.4,0,0,0,69.86,69.87l78.6-78.6a12.36,12.36,0,0,0,0-17.47Zm26.2-26.2a49.4,49.4,0,0,0-69.86,0l-78.6,78.6a12.35,12.35,0,0,0,17.46,17.46l78.6-78.59a24.69,24.69,0,0,1,34.93,0,12.35,12.35,0,0,0,17.47-17.47Zm26.2,78.6a12.36,12.36,0,0,0-17.47,0l-78.59,78.59a24.7,24.7,0,0,1-34.94,0,12.35,12.35,0,1,0-17.46,17.47,49.4,49.4,0,0,0,69.86,0l78.6-78.6a12.35,12.35,0,0,0,0-17.46Zm26.2-26.2a49.4,49.4,0,0,0-69.86,0l-78.6,78.6a12.35,12.35,0,0,0,17.46,17.46l78.6-78.59a24.7,24.7,0,0,1,34.93,34.93L147,196.35a24.69,24.69,0,0,0,34.93,0l59.62-59.61a49.41,49.41,0,0,0,0-69.87Z" transform="translate(0)"/></svg>