<svg id="Layer_1" data-name="Layer 1" xmlns="http://www.w3.org/2000/svg" xmlns:xlink="http://www.w3.org/1999/xlink" viewBox="0 0 600 600"><defs><style>.cls-1{fill:#fff;}.cls-2{fill:url(#linear-gradient);}</style><linearGradient id="linear-gradient" x1="-335.19" y1="-207.82" x2="-327.69" y2="-200.32" gradientTransform="translate(19391 7350.13) scale(57.6 34.56)" gradientUnits="userSpaceOnUse"><stop offset="0" stop-color="#2383ae"/><stop offset="1" stop-color="#6dd7b9"/></linearGradient></defs><title>tailwind</title><circle id="b" cx="300" cy="300" r="300"/><circle id="b-2" data-name="b" class="cls-1" cx="300" cy="300" r="300"/><path class="cls-2" d="M192.07,254.41Q213.7,167.94,300,167.93c86.49,0,97.12,64.86,140.36,75.67q43.25,10.82,75.68-32.43-21.63,86.49-107.93,86.49c-86.49,0-97.12-64.87-140.36-75.68Q224.24,211.17,192.07,254.41ZM84,384q21.63-86.47,107.93-86.48c86.49,0,97.12,64.86,140.36,75.67Q375.5,384,407.93,340.72,386.3,427.21,300,427.21c-86.49,0-97.12-64.87-140.36-75.68Q116.4,340.72,84,384Z"/></svg>